<svg width="1012" height="786" viewBox="0 0 1012 786" fill="none" xmlns="http://www.w3.org/2000/svg">
<path fill-rule="evenodd" clip-rule="evenodd" d="M83.0742 13.9081C83.0742 9.30003 80.9117 5.14177 77.1346 2.51187C73.3517 -0.123811 68.7153 -0.71208 64.3961 0.873939L9.07669 21.2961C3.63875 23.3031 0 28.5399 0 34.3188V348.887C0 356.54 6.22221 362.769 13.8861 362.769H69.2055C76.852 362.769 83.0742 356.54 83.0742 348.887V13.9081Z" fill="#F1F4F7"></path>
<path fill-rule="evenodd" clip-rule="evenodd" d="M1008.22 13.9081C1008.22 9.30003 1006.06 5.14177 1002.28 2.51187C998.497 -0.123811 993.861 -0.71208 989.542 0.873939L934.222 21.2961C928.784 23.3031 925.146 28.5399 925.146 34.3188V348.887C925.146 356.54 931.368 362.769 939.032 362.769H994.351C1002 362.769 1008.22 356.54 1008.22 348.887V13.9081Z" fill="#F1F4F7"></path>
<path fill-rule="evenodd" clip-rule="evenodd" d="M472.016 181.382C472.016 281.56 390.861 362.769 290.763 362.769C190.659 362.769 109.51 281.56 109.51 181.382C109.51 81.2094 190.659 0 290.763 0C390.861 0 472.016 81.2094 472.016 181.382Z" fill="#F1F4F7"></path>
<path fill-rule="evenodd" clip-rule="evenodd" d="M879.832 181.382C879.832 281.56 798.677 362.769 698.579 362.769C598.476 362.769 517.326 281.56 517.326 181.382C517.326 81.2094 598.476 0 698.579 0C798.677 0 879.832 81.2094 879.832 181.382Z" fill="#F1F4F7"></path>
<path fill-rule="evenodd" clip-rule="evenodd" d="M494.67 437.139C494.67 432.531 492.508 428.373 488.731 425.743C484.948 423.107 480.311 422.519 475.992 424.105L420.673 444.527C415.235 446.534 411.596 451.771 411.596 457.55V772.118C411.596 779.771 417.818 786 425.482 786H480.802C488.448 786 494.67 779.771 494.67 772.118V437.139Z" fill="#F1F4F7"></path>
<path fill-rule="evenodd" clip-rule="evenodd" d="M604.179 437.139C604.179 432.531 602.017 428.373 598.239 425.743C594.456 423.107 589.82 422.519 585.501 424.105L530.182 444.527C524.744 446.534 521.105 451.771 521.105 457.55V772.118C521.105 779.771 527.327 786 534.991 786H590.31C597.957 786 604.179 779.771 604.179 772.118V437.139Z" fill="#F1F4F7"></path>
<path fill-rule="evenodd" clip-rule="evenodd" d="M366.283 604.613C366.283 704.791 285.128 786 185.03 786C84.9261 786 3.77699 704.791 3.77699 604.613C3.77699 504.44 84.9261 423.231 185.03 423.231C285.128 423.231 366.283 504.44 366.283 604.613Z" fill="#F1F4F7"></path>
<path fill-rule="evenodd" clip-rule="evenodd" d="M1012 604.613C1012 704.791 930.845 786 830.747 786C730.643 786 649.494 704.791 649.494 604.613C649.494 504.44 730.643 423.231 830.747 423.231C930.845 423.231 1012 504.44 1012 604.613Z" fill="#F1F4F7"></path>
</svg>